<mxfile host="65bd71144e">
    <diagram id="kPWpZeB2M8FcOMIMYAff" name="Page-1">
        <mxGraphModel dx="-36" dy="647" grid="1" gridSize="10" guides="1" tooltips="1" connect="1" arrows="1" fold="1" page="1" pageScale="1" pageWidth="850" pageHeight="1100" math="0" shadow="0">
            <root>
                <mxCell id="0"/>
                <mxCell id="1" parent="0"/>
                <mxCell id="26" value="" style="rounded=0;whiteSpace=wrap;html=1;" parent="1" vertex="1">
                    <mxGeometry x="880" y="40" width="400" height="80" as="geometry"/>
                </mxCell>
                <mxCell id="21" value="" style="rounded=0;whiteSpace=wrap;html=1;" parent="1" vertex="1">
                    <mxGeometry x="1425" y="180" width="200" height="160" as="geometry"/>
                </mxCell>
                <mxCell id="3" value="" style="rounded=0;whiteSpace=wrap;html=1;" parent="1" vertex="1">
                    <mxGeometry x="880" y="160" width="280" height="200" as="geometry"/>
                </mxCell>
                <mxCell id="2" value="IMU log&lt;br&gt;YYMMDD-FHXXX/PresIMULog.csv" style="html=1;rounded=0;shadow=0;comic=0;labelBackgroundColor=none;strokeWidth=2;fontFamily=Verdana;fontSize=12;align=center;shape=mxgraph.ios7ui.horLines;" parent="1" vertex="1">
                    <mxGeometry x="930" y="190" width="210" height="30" as="geometry"/>
                </mxCell>
                <mxCell id="4" value="&lt;b&gt;S3&lt;/b&gt;:://nitelite.metadata" style="text;html=1;strokeColor=none;fillColor=none;align=left;verticalAlign=middle;whiteSpace=wrap;rounded=0;" parent="1" vertex="1">
                    <mxGeometry x="880" y="140" width="170" height="20" as="geometry"/>
                </mxCell>
                <mxCell id="5" value="image log&lt;br&gt;YYMMDD-FHXXX/image.log" style="html=1;rounded=0;shadow=0;comic=0;labelBackgroundColor=none;strokeWidth=2;fontFamily=Verdana;fontSize=12;align=center;shape=mxgraph.ios7ui.horLines;" parent="1" vertex="1">
                    <mxGeometry x="930" y="245" width="210" height="30" as="geometry"/>
                </mxCell>
                <mxCell id="6" value="GPS log&lt;br&gt;YYMMDD-FHXXX/GPSLog.csv" style="html=1;rounded=0;shadow=0;comic=0;labelBackgroundColor=none;strokeWidth=2;fontFamily=Verdana;fontSize=12;align=center;shape=mxgraph.ios7ui.horLines;" parent="1" vertex="1">
                    <mxGeometry x="930" y="300" width="210" height="30" as="geometry"/>
                </mxCell>
                <mxCell id="7" value="" style="rounded=0;whiteSpace=wrap;html=1;" parent="1" vertex="1">
                    <mxGeometry x="880" y="400" width="610" height="70" as="geometry"/>
                </mxCell>
                <mxCell id="8" value="&lt;b&gt;S3&lt;/b&gt;:://nitelite.pipeline-output" style="text;html=1;strokeColor=none;fillColor=none;align=left;verticalAlign=middle;whiteSpace=wrap;rounded=0;" parent="1" vertex="1">
                    <mxGeometry x="880" y="380" width="170" height="20" as="geometry"/>
                </mxCell>
                <mxCell id="9" value="combined metadata&lt;br&gt;metadata/YYMMDD-FHXXX_YYYY-MM-DD_HH-MM-SS/220513-FH135-metadata.csv" style="html=1;rounded=0;shadow=0;comic=0;labelBackgroundColor=none;strokeWidth=2;fontFamily=Verdana;fontSize=12;align=center;shape=mxgraph.ios7ui.horLines;" parent="1" vertex="1">
                    <mxGeometry x="940" y="420" width="525" height="30" as="geometry"/>
                </mxCell>
                <mxCell id="10" value="" style="rounded=0;whiteSpace=wrap;html=1;" parent="1" vertex="1">
                    <mxGeometry x="1315" y="40" width="320" height="80" as="geometry"/>
                </mxCell>
                <mxCell id="13" value="" style="edgeStyle=none;html=1;fontSize=14;" parent="1" source="12" target="10" edge="1">
                    <mxGeometry relative="1" as="geometry"/>
                </mxCell>
                <mxCell id="12" value="&lt;b&gt;Amazon ECR&lt;/b&gt;: public.ecr.aws/i2m6n0b5/nitelite-pipeline" style="text;html=1;strokeColor=none;fillColor=none;align=left;verticalAlign=middle;whiteSpace=wrap;rounded=0;" parent="1" vertex="1">
                    <mxGeometry x="1315" y="20" width="310" height="20" as="geometry"/>
                </mxCell>
                <mxCell id="14" value="Docker image&lt;br&gt;public.ecr.aws/i2m6n0b5/nitelite-pipeline" style="html=1;rounded=0;shadow=0;comic=0;labelBackgroundColor=none;strokeWidth=2;fontFamily=Verdana;fontSize=12;align=center;shape=mxgraph.ios7ui.horLines;" parent="1" vertex="1">
                    <mxGeometry x="1365" y="65" width="260" height="30" as="geometry"/>
                </mxCell>
                <mxCell id="16" value="" style="sketch=0;points=[[0,0,0],[0.25,0,0],[0.5,0,0],[0.75,0,0],[1,0,0],[0,1,0],[0.25,1,0],[0.5,1,0],[0.75,1,0],[1,1,0],[0,0.25,0],[0,0.5,0],[0,0.75,0],[1,0.25,0],[1,0.5,0],[1,0.75,0]];outlineConnect=0;fontColor=#232F3E;gradientColor=#F78E04;gradientDirection=north;fillColor=#D05C17;strokeColor=#ffffff;dashed=0;verticalLabelPosition=bottom;verticalAlign=top;align=center;html=1;fontSize=12;fontStyle=0;aspect=fixed;shape=mxgraph.aws4.resourceIcon;resIcon=mxgraph.aws4.ecr;" parent="1" vertex="1">
                    <mxGeometry x="1315" y="40" width="40" height="40" as="geometry"/>
                </mxCell>
                <mxCell id="17" value="" style="sketch=0;points=[[0,0,0],[0.25,0,0],[0.5,0,0],[0.75,0,0],[1,0,0],[0,1,0],[0.25,1,0],[0.5,1,0],[0.75,1,0],[1,1,0],[0,0.25,0],[0,0.5,0],[0,0.75,0],[1,0.25,0],[1,0.5,0],[1,0.75,0]];outlineConnect=0;fontColor=#232F3E;gradientColor=#60A337;gradientDirection=north;fillColor=#277116;strokeColor=#ffffff;dashed=0;verticalLabelPosition=bottom;verticalAlign=top;align=center;html=1;fontSize=12;fontStyle=0;aspect=fixed;shape=mxgraph.aws4.resourceIcon;resIcon=mxgraph.aws4.s3;" parent="1" vertex="1">
                    <mxGeometry x="880" y="160" width="40" height="40" as="geometry"/>
                </mxCell>
                <mxCell id="18" value="" style="sketch=0;points=[[0,0,0],[0.25,0,0],[0.5,0,0],[0.75,0,0],[1,0,0],[0,1,0],[0.25,1,0],[0.5,1,0],[0.75,1,0],[1,1,0],[0,0.25,0],[0,0.5,0],[0,0.75,0],[1,0.25,0],[1,0.5,0],[1,0.75,0]];outlineConnect=0;fontColor=#232F3E;gradientColor=#60A337;gradientDirection=north;fillColor=#277116;strokeColor=#ffffff;dashed=0;verticalLabelPosition=bottom;verticalAlign=top;align=center;html=1;fontSize=12;fontStyle=0;aspect=fixed;shape=mxgraph.aws4.resourceIcon;resIcon=mxgraph.aws4.s3;" parent="1" vertex="1">
                    <mxGeometry x="880" y="400" width="40" height="40" as="geometry"/>
                </mxCell>
                <mxCell id="20" value="" style="sketch=0;points=[[0,0,0],[0.25,0,0],[0.5,0,0],[0.75,0,0],[1,0,0],[0,1,0],[0.25,1,0],[0.5,1,0],[0.75,1,0],[1,1,0],[0,0.25,0],[0,0.5,0],[0,0.75,0],[1,0.25,0],[1,0.5,0],[1,0.75,0]];outlineConnect=0;fontColor=#232F3E;gradientColor=#4D72F3;gradientDirection=north;fillColor=#3334B9;strokeColor=#ffffff;dashed=0;verticalLabelPosition=bottom;verticalAlign=top;align=center;html=1;fontSize=12;fontStyle=0;aspect=fixed;shape=mxgraph.aws4.resourceIcon;resIcon=mxgraph.aws4.codebuild;" parent="1" vertex="1">
                    <mxGeometry x="1425" y="180" width="40" height="40" as="geometry"/>
                </mxCell>
                <mxCell id="23" value="config file&lt;br&gt;configs/metadata.yaml" style="html=1;rounded=0;shadow=0;comic=0;labelBackgroundColor=none;strokeWidth=2;fontFamily=Verdana;fontSize=12;align=center;shape=mxgraph.ios7ui.horLines;" parent="1" vertex="1">
                    <mxGeometry x="950" y="65" width="260" height="30" as="geometry"/>
                </mxCell>
                <mxCell id="24" value="" style="dashed=0;outlineConnect=0;html=1;align=center;labelPosition=center;verticalLabelPosition=bottom;verticalAlign=top;shape=mxgraph.weblogos.github;fontSize=14;" parent="1" vertex="1">
                    <mxGeometry x="880" y="40" width="40" height="40" as="geometry"/>
                </mxCell>
                <mxCell id="25" value="&lt;b&gt;AWS CodeBuild&lt;/b&gt;: nitelite-pipeline" style="text;html=1;strokeColor=none;fillColor=none;align=left;verticalAlign=middle;whiteSpace=wrap;rounded=0;" parent="1" vertex="1">
                    <mxGeometry x="1425" y="160" width="190" height="20" as="geometry"/>
                </mxCell>
                <mxCell id="27" value="&lt;b&gt;Source Code Repository&lt;/b&gt;: github.com/AdlerFarHorizons/NITELite-pipeline" style="text;html=1;strokeColor=none;fillColor=none;align=left;verticalAlign=middle;whiteSpace=wrap;rounded=0;" parent="1" vertex="1">
                    <mxGeometry x="880" y="20" width="410" height="20" as="geometry"/>
                </mxCell>
                <mxCell id="28" value="MetadataProcessor" style="ellipse;whiteSpace=wrap;html=1;aspect=fixed;fontSize=14;" parent="1" vertex="1">
                    <mxGeometry x="1475" y="190" width="140" height="140" as="geometry"/>
                </mxCell>
                <mxCell id="34" value="" style="edgeStyle=orthogonalEdgeStyle;html=1;endArrow=block;elbow=vertical;startArrow=none;endFill=1;strokeColor=#545B64;rounded=0;fontSize=14;exitX=0.126;exitY=1.001;exitDx=0;exitDy=0;exitPerimeter=0;entryX=0;entryY=0.5;entryDx=0;entryDy=0;entryPerimeter=0;" parent="1" source="14" target="20" edge="1">
                    <mxGeometry width="100" relative="1" as="geometry">
                        <mxPoint x="1280" y="190" as="sourcePoint"/>
                        <mxPoint x="1380" y="190" as="targetPoint"/>
                        <Array as="points">
                            <mxPoint x="1400" y="95"/>
                            <mxPoint x="1400" y="200"/>
                        </Array>
                    </mxGeometry>
                </mxCell>
                <mxCell id="35" value="" style="edgeStyle=orthogonalEdgeStyle;html=1;endArrow=block;elbow=vertical;startArrow=none;endFill=1;strokeColor=#545B64;rounded=0;fontSize=14;entryX=0.042;entryY=0.285;entryDx=0;entryDy=0;entryPerimeter=0;" parent="1" source="23" target="28" edge="1">
                    <mxGeometry width="100" relative="1" as="geometry">
                        <mxPoint x="1200" y="96" as="sourcePoint"/>
                        <mxPoint x="1380" y="190" as="targetPoint"/>
                        <Array as="points">
                            <mxPoint x="1250" y="80"/>
                            <mxPoint x="1250" y="230"/>
                        </Array>
                    </mxGeometry>
                </mxCell>
                <mxCell id="36" value="" style="edgeStyle=orthogonalEdgeStyle;html=1;endArrow=block;elbow=vertical;startArrow=none;endFill=1;strokeColor=#545B64;rounded=0;fontSize=14;entryX=0;entryY=0.5;entryDx=0;entryDy=0;" parent="1" source="2" target="28" edge="1">
                    <mxGeometry width="100" relative="1" as="geometry">
                        <mxPoint x="1280" y="190" as="sourcePoint"/>
                        <mxPoint x="1380" y="190" as="targetPoint"/>
                        <Array as="points">
                            <mxPoint x="1200" y="205"/>
                            <mxPoint x="1200" y="260"/>
                        </Array>
                    </mxGeometry>
                </mxCell>
                <mxCell id="37" value="" style="edgeStyle=orthogonalEdgeStyle;html=1;endArrow=block;elbow=vertical;startArrow=none;endFill=1;strokeColor=#545B64;rounded=0;fontSize=14;entryX=0;entryY=0.5;entryDx=0;entryDy=0;" parent="1" source="5" target="28" edge="1">
                    <mxGeometry width="100" relative="1" as="geometry">
                        <mxPoint x="1280" y="190" as="sourcePoint"/>
                        <mxPoint x="1380" y="190" as="targetPoint"/>
                        <Array as="points">
                            <mxPoint x="1250" y="260"/>
                            <mxPoint x="1250" y="260"/>
                        </Array>
                    </mxGeometry>
                </mxCell>
                <mxCell id="38" value="" style="edgeStyle=orthogonalEdgeStyle;html=1;endArrow=block;elbow=vertical;startArrow=none;endFill=1;strokeColor=#545B64;rounded=0;fontSize=14;entryX=0;entryY=0.5;entryDx=0;entryDy=0;" parent="1" source="6" target="28" edge="1">
                    <mxGeometry width="100" relative="1" as="geometry">
                        <mxPoint x="1280" y="190" as="sourcePoint"/>
                        <mxPoint x="1380" y="190" as="targetPoint"/>
                        <Array as="points">
                            <mxPoint x="1200" y="315"/>
                            <mxPoint x="1200" y="260"/>
                        </Array>
                    </mxGeometry>
                </mxCell>
                <mxCell id="39" value="" style="edgeStyle=orthogonalEdgeStyle;html=1;endArrow=none;elbow=vertical;startArrow=block;startFill=1;strokeColor=#545B64;rounded=0;fontSize=14;entryX=0.5;entryY=1;entryDx=0;entryDy=0;" parent="1" source="9" target="28" edge="1">
                    <mxGeometry width="100" relative="1" as="geometry">
                        <mxPoint x="1280" y="230" as="sourcePoint"/>
                        <mxPoint x="1380" y="230" as="targetPoint"/>
                        <Array as="points">
                            <mxPoint x="1545" y="435"/>
                        </Array>
                    </mxGeometry>
                </mxCell>
                <mxCell id="40" value="Mountpoint for Amazon S3" style="text;html=1;align=center;verticalAlign=middle;resizable=0;points=[];autosize=1;strokeColor=none;fillColor=none;" parent="1" vertex="1">
                    <mxGeometry x="1194" y="255" width="160" height="30" as="geometry"/>
                </mxCell>
            </root>
        </mxGraphModel>
    </diagram>
</mxfile>